<?xml version="1.0" standalone="no"?>
<!DOCTYPE svg PUBLIC "-//W3C//DTD SVG 20010904//EN"
 "http://www.w3.org/TR/2001/REC-SVG-20010904/DTD/svg10.dtd">
<svg version="1.0" xmlns="http://www.w3.org/2000/svg"
 width="512.000000pt" height="512.000000pt" viewBox="0 0 512.000000 512.000000"
 preserveAspectRatio="xMidYMid meet">

<g transform="translate(0.000000,512.000000) scale(0.100000,-0.100000)"
fill="#000000" stroke="none">
<path d="M1006 4614 c-164 -40 -301 -172 -340 -329 -8 -33 -88 -652 -177
-1375 -181 -1480 -175 -1384 -105 -1526 42 -84 125 -168 209 -209 65 -31 135
-44 450 -81 l237 -28 0 -81 c0 -151 50 -274 151 -370 64 -62 155 -109 238
-125 34 -6 413 -10 1048 -10 830 0 999 2 1026 14 41 18 1033 1012 1047 1049
14 38 14 1993 0 2068 -25 131 -124 266 -239 328 -88 47 -158 61 -302 61 l-127
0 -26 54 c-50 102 -152 194 -256 231 -46 16 -201 37 -1240 164 -316 39 -776
96 -1022 126 -247 30 -463 55 -480 54 -18 0 -59 -7 -92 -15z m590 -364 c269
-33 615 -76 769 -94 154 -19 494 -61 755 -93 l475 -58 -970 -5 c-964 -5 -970
-5 -1022 -27 -163 -66 -267 -181 -308 -340 -13 -49 -15 -214 -15 -1150 0 -799
-3 -1093 -11 -1093 -56 0 -519 65 -540 76 -32 16 -63 58 -72 96 -8 30 308
2620 324 2660 17 43 73 85 115 87 6 1 231 -26 500 -59z m2810 -596 c15 -11 37
-33 48 -48 21 -27 21 -37 24 -857 l2 -829 -347 -1 c-496 -2 -539 -3 -604 -27
-31 -11 -75 -32 -98 -47 -24 -14 -50 -24 -59 -20 -8 3 -124 73 -256 156 l-241
151 0 108 0 108 241 151 c132 83 248 153 257 156 8 4 32 -5 54 -19 129 -86
310 -93 461 -20 258 126 344 443 187 689 -106 165 -320 249 -510 200 -225 -59
-379 -269 -362 -495 l6 -76 -243 -151 c-134 -84 -250 -155 -259 -158 -8 -4
-33 5 -54 19 -176 117 -424 92 -582 -59 -200 -190 -200 -500 0 -690 158 -151
406 -176 582 -59 21 14 46 23 54 19 9 -3 126 -74 259 -158 l243 -152 -5 -70
c-10 -124 35 -261 117 -350 l39 -42 0 -142 0 -141 -828 2 -829 3 -37 29 c-70
53 -66 -42 -66 1405 0 903 3 1318 11 1338 14 37 47 73 84 89 25 11 266 13
1357 11 1323 -2 1327 -2 1354 -23z m-663 -468 c104 -43 128 -175 47 -256 -66
-66 -156 -67 -221 -1 -124 123 13 325 174 257z m-1280 -800 c104 -43 129 -180
46 -258 -67 -64 -156 -64 -220 1 -124 123 13 325 174 257z m1587 -1151 l-365
-365 -3 287 c-1 159 0 302 3 320 7 40 49 91 90 109 23 10 104 13 335 14 l305
0 -365 -365z"/>
</g>
</svg>
